<svg width="35" height="35" viewBox="0 0 35 35" fill="none" xmlns="http://www.w3.org/2000/svg">
<path d="M4.75861 32.2241C4.75861 32.2241 4.72678 33.0066 5.49203 33.0066C6.44429 33.0066 14.3143 32.996 14.3143 32.996L14.3276 25.7666C14.3276 25.7666 14.2029 24.5756 15.3581 24.5756H19.0199C20.3873 24.5756 20.3037 25.7666 20.3037 25.7666L20.2878 32.9735C20.2878 32.9735 27.752 32.9735 28.9244 32.9735C29.8952 32.9735 29.8514 32 29.8514 32V18.6684L17.679 7.84216L4.75861 18.6698V32.2241Z" fill="white"/>
<path d="M0 17.6618C0 17.6618 1.09549 19.683 3.48939 17.6618L17.7878 5.56498L31.1923 17.5862C33.9615 19.5835 35 17.5862 35 17.5862L17.7878 1.99469L0 17.6618Z" fill="white"/>
<path d="M30.8661 5.53711H27.4191L27.4337 9.71881L30.8661 12.6326V5.53711Z" fill="white"/>
</svg>
